custom-analysis
version=1
nRows=7
nColumns=98
inDegrees=no

This file contains tibia displacement and acting force.

Units are S.I. units (seconds, meters, Newtons, ...)
Angles are in degrees.

endheader
time	APT	SIT	knee_angle	aACL_R_force	pACL_R_force	aPCL_R_force	pPCL_R_force	aMCL_R_force	mMCL_R_force	pMCL_R_force	aLCL_R_force	mLCL_R_force	pLCL_R_force	aPCL_L_force	pPCL_L_force	aMCL_L_force	aLCL_L_force	aACL_R_length	pACL_R_length	aPCL_R_length	pPCL_R_length	aMCL_R_length	mMCL_R_length	pMCL_R_length	aLCL_R_length	mLCL_R_length	pLCL_R_length	aPCL_L_length	pPCL_L_length	aMCL_L_length	aLCL_L_length	aACL_R_strain	pACL_R_strain	aPCL_R_strain	pPCL_R_strain	aMCL_R_strain	mMCL_R_strain	pMCL_R_strain	aLCL_R_strain	mLCL_R_strain	pLCL_R_strain	aPCL_L_strain	pPCL_L_strain	aMCL_L_strain	aLCL_L_strain	femur_lat_meniscii_r.femur_lat_r.force.X	femur_lat_meniscii_r.femur_lat_r.force.Y	femur_lat_meniscii_r.femur_lat_r.force.Z	femur_lat_meniscii_r.femur_lat_r.torque.X	femur_lat_meniscii_r.femur_lat_r.torque.Y	femur_lat_meniscii_r.femur_lat_r.torque.Z	femur_lat_meniscii_r.meniscus_lat_r.force.X	femur_lat_meniscii_r.meniscus_lat_r.force.Y	femur_lat_meniscii_r.meniscus_lat_r.force.Z	femur_lat_meniscii_r.meniscus_lat_r.torque.X	femur_lat_meniscii_r.meniscus_lat_r.torque.Y	femur_lat_meniscii_r.meniscus_lat_r.torque.Z	femur_med_meniscii_r.femur_med_r.force.X	femur_med_meniscii_r.femur_med_r.force.Y	femur_med_meniscii_r.femur_med_r.force.Z	femur_med_meniscii_r.femur_med_r.torque.X	femur_med_meniscii_r.femur_med_r.torque.Y	femur_med_meniscii_r.femur_med_r.torque.Z	femur_med_meniscii_r.meniscus_med_r.force.X	femur_med_meniscii_r.meniscus_med_r.force.Y	femur_med_meniscii_r.meniscus_med_r.force.Z	femur_med_meniscii_r.meniscus_med_r.torque.X	femur_med_meniscii_r.meniscus_med_r.torque.Y	femur_med_meniscii_r.meniscus_med_r.torque.Z	femur_med_tibia_r.tibia_upper_r.force.X	femur_med_tibia_r.tibia_upper_r.force.Y	femur_med_tibia_r.tibia_upper_r.force.Z	femur_med_tibia_r.tibia_upper_r.torque.X	femur_med_tibia_r.tibia_upper_r.torque.Y	femur_med_tibia_r.tibia_upper_r.torque.Z	femur_med_tibia_r.femur_med_r.force.X	femur_med_tibia_r.femur_med_r.force.Y	femur_med_tibia_r.femur_med_r.force.Z	femur_med_tibia_r.femur_med_r.torque.X	femur_med_tibia_r.femur_med_r.torque.Y	femur_med_tibia_r.femur_med_r.torque.Z	femur_lat_tibia_r.tibia_upper_r.force.X	femur_lat_tibia_r.tibia_upper_r.force.Y	femur_lat_tibia_r.tibia_upper_r.force.Z	femur_lat_tibia_r.tibia_upper_r.torque.X	femur_lat_tibia_r.tibia_upper_r.torque.Y	femur_lat_tibia_r.tibia_upper_r.torque.Z	femur_lat_tibia_r.femur_lat_r.force.X	femur_lat_tibia_r.femur_lat_r.force.Y	femur_lat_tibia_r.femur_lat_r.force.Z	femur_lat_tibia_r.femur_lat_r.torque.X	femur_lat_tibia_r.femur_lat_r.torque.Y	femur_lat_tibia_r.femur_lat_r.torque.Z	femur_lat_meniscii_force_r	femur_med_meniscii_force_r	femur_lat_tibia_force_r	femur_med_tibia_force_r
      0.20667703	      0.01369615	      0.02551324	     79.52611238	      0.10922502	      0.00000000	    938.40255566	    589.82227299	     27.20400555	     13.08448545	      0.00000000	      0.00000000	      0.00000000	      0.00000000	      0.00000000	      0.00000000	      0.00000001	      0.00000000	      0.03102255	      0.02431167	      0.03701949	      0.03382404	      0.06133503	      0.05981994	      0.05644548	      0.05043108	      0.04502112	      0.03999116	      0.01525851	      0.01651186	      0.06550154	      0.04489616	      0.00054976	     -0.02981132	      0.19051726	      0.13170050	      0.02179070	      0.00044218	     -0.03886591	     -0.09907814	     -0.20059950	     -0.23597447	      0.00000079	     -0.32847694	      0.00000060	     -0.00000086	    220.17270753	    133.01108778	      6.98043597	     -5.81548739	      5.07492573	     87.55502910	   -220.17270753	   -133.01108778	     -6.98043597	      3.37493972	     -5.77187648	      2.70354050	      0.28369885	     -0.00520770	     -0.08453442	      0.03356002	     -0.00457156	      0.11288903	     -0.28369885	      0.00520770	      0.08453442	     -0.00028602	      0.00617953	     -0.00131999	   -893.81965754	   -386.04463283	    294.27751855	     -8.74908032	     21.62894202	      2.00948359	    893.81965754	    386.04463283	   -294.27751855	    125.51715316	    -15.81414063	    360.28245186	   -222.16678745	   -110.39012468	    -60.07505352	      3.51340369	     -7.55684912	      0.89818085	    222.16678745	    110.39012468	     60.07505352	    -26.91274848	      5.43266235	     89.53946647	    257.32605212	      0.29607132	    255.25100025	   1017.12501525
      0.20723606	      0.01367849	      0.02562108	     79.82858990	      0.84415270	      0.00000000	    942.22422144	    591.75685400	     27.31391609	     13.13269053	      0.00000000	      0.00000000	      0.00000000	      0.00000000	      0.00000000	      0.00000000	      0.00000001	      0.00000000	      0.03102355	      0.02432700	      0.03704305	      0.03384281	      0.06135361	      0.05983004	      0.05645845	      0.05039645	      0.04498154	      0.03995545	      0.01525851	      0.01651186	      0.06550154	      0.04489616	      0.00058219	     -0.02919944	      0.19127489	      0.13232850	      0.02210015	      0.00061116	     -0.03864516	     -0.09969687	     -0.20130227	     -0.23665663	      0.00000079	     -0.32847694	      0.00000060	     -0.00000086	    219.98764362	    129.89467510	      6.43880581	     -5.52155643	      5.05958716	     87.49649917	   -219.98764362	   -129.89467510	     -6.43880581	      3.28919405	     -5.74678983	      2.63762291	      0.22304541	     -0.00937584	     -0.06787091	      0.02688191	     -0.00360488	      0.08878785	     -0.22304541	      0.00937584	      0.06787091	     -0.00017163	      0.00490590	     -0.00118907	   -892.86290969	   -377.70392848	    295.27788717	     -8.58920336	     21.62807215	      1.89442015	    892.86290969	    377.70392848	   -295.27788717	    125.77286021	    -15.78666147	    359.91819512	   -229.36239866	   -111.66506890	    -62.00042585	      3.56444785	     -7.81319308	      0.88712196	    229.36239866	    111.66506890	     62.00042585	    -27.72339490	      5.61212778	     92.44991681	    255.55556771	      0.23333157	    262.52666595	   1013.43646261
      0.20779510	      0.01366018	      0.02572870	     80.13104078	      0.85302992	      0.00000000	    946.42809336	    594.92725349	     26.94018658	     12.97154748	      0.00000000	      0.00000000	      0.00000000	      0.00000000	      0.00000000	      0.00000000	      0.00000001	      0.00000000	      0.03102478	      0.02434273	      0.03706655	      0.03386159	      0.06137194	      0.05984008	      0.05647158	      0.05036201	      0.04494227	      0.03992020	      0.01525851	      0.01651186	      0.06550154	      0.04489616	      0.00062184	     -0.02857174	      0.19203074	      0.13295685	      0.02240551	      0.00077907	     -0.03842149	     -0.10031212	     -0.20199957	     -0.23733010	      0.00000079	     -0.32847694	      0.00000060	     -0.00000086	    219.53395193	    128.58699071	      6.88987869	     -5.67658454	      5.06210697	     87.31984269	   -219.53395193	   -128.58699071	     -6.88987869	      3.26556095	     -5.76557851	      2.63222379	      0.16540595	     -0.00784873	     -0.05718701	      0.02263155	     -0.00265371	      0.06585340	     -0.16540595	      0.00784873	      0.05718701	     -0.00011957	      0.00380224	     -0.00089806	   -892.34984027	   -375.16466045	    295.72785113	     -8.48854086	     21.60939653	      1.99534109	    892.34984027	    375.16466045	   -295.72785113	    125.88457136	    -15.75734993	    359.66761941	   -236.31831105	   -111.77909010	    -62.95822879	      3.57541997	     -8.02514520	      0.83553035	    236.31831105	    111.77909010	     62.95822879	    -28.11588540	      5.77329813	     95.27693778	    254.51373373	      0.17518871	    268.89523554	   1012.17178473
      0.20833123	      0.01364098	      0.02583170	     80.42085913	      0.81063135	      0.00000000	    950.51955606	    598.07121523	     26.58105300	     12.82142154	      0.00000000	      0.00000000	      0.00000000	      0.00000000	      0.00000000	      0.00000000	      0.00000001	      0.00000000	      0.03102563	      0.02435791	      0.03708934	      0.03387997	      0.06138908	      0.05984956	      0.05648432	      0.05032912	      0.04490489	      0.03988692	      0.01525851	      0.01651186	      0.06550154	      0.04489616	      0.00064923	     -0.02796608	      0.19276365	      0.13357201	      0.02269118	      0.00093755	     -0.03820466	     -0.10089965	     -0.20266330	     -0.23796591	      0.00000079	     -0.32847694	      0.00000060	     -0.00000086	    218.31981852	    128.44896379	      6.24312688	     -5.41306961	      5.02855066	     86.81302604	   -218.31981852	   -128.44896379	     -6.24312688	      3.25860585	     -5.71674507	      2.68699643	      0.09986699	     -0.00468085	     -0.04148362	      0.01642659	     -0.00159492	      0.03976152	     -0.09986699	      0.00468085	      0.04148362	     -0.00008966	      0.00247566	     -0.00053164	   -892.25220823	   -373.12144141	    297.73280015	     -8.42138873	     21.65580355	      2.10034614	    892.25220823	    373.12144141	   -297.73280015	    126.64190540	    -15.75247157	    359.58360921	   -242.18729538	   -113.20421126	    -64.22419709	      3.61925482	     -8.22288205	      0.85228345	    242.18729538	    113.20421126	     64.22419709	    -28.65949277	      5.91447834	     97.64250222	    253.38045720	      0.10824148	    274.94477079	   1011.91819502
      0.20886735	      0.01362092	      0.02593447	     80.71057201	      0.93037923	      0.00000000	    954.54869313	    600.97477797	     26.47114051	     12.82690679	      0.00000000	      0.00000000	      0.00000000	      0.00000000	      0.00000000	      0.00000000	      0.00000001	      0.00000000	      0.03102650	      0.02437332	      0.03711219	      0.03389849	      0.06140598	      0.05985897	      0.05649722	      0.05029644	      0.04486783	      0.03985414	      0.01525851	      0.01651186	      0.06550154	      0.04489616	      0.00067716	     -0.02735086	      0.19349844	      0.13419159	      0.02297261	      0.00109497	     -0.03798492	     -0.10148348	     -0.20332126	     -0.23859214	      0.00000079	     -0.32847694	      0.00000060	     -0.00000086	    217.11196411	    128.10436320	      6.34395869	     -5.44509527	      4.99671782	     86.30973536	   -217.11196411	   -128.10436320	     -6.34395869	      3.25213763	     -5.68972463	      2.73474997	      0.05949101	     -0.00027754	     -0.03202748	      0.01272946	     -0.00094403	      0.02366322	     -0.05949101	      0.00027754	      0.03202748	     -0.00010520	      0.00166639	     -0.00021993	   -893.21643115	   -370.10929479	    301.92790553	     -8.37124484	     21.79934438	      2.15137184	    893.21643115	    370.10929479	   -301.92790553	    128.27756889	    -15.78811494	    359.94536954	   -247.35959726	   -113.55108433	    -65.29428780	      3.63493493	     -8.39516933	      0.83830426	    247.35959726	    113.55108433	     65.29428780	    -29.10052114	      6.03683180	     99.73632718	    252.16775893	      0.06756491	    279.89991627	   1012.90519947
      0.20940348	      0.01360065	      0.02603700	     81.00029634	      0.40523639	      0.00000000	    958.85576829	    604.80500712	     26.04954592	     12.72027938	      0.00000000	      0.00000000	      0.00000000	      0.00000000	      0.00000000	      0.00000000	      0.00000001	      0.00000000	      0.03102761	      0.02438902	      0.03713496	      0.03391696	      0.06142278	      0.05986841	      0.05651035	      0.05026405	      0.04483117	      0.03982188	      0.01525851	      0.01651186	      0.06550154	      0.04489616	      0.00071305	     -0.02672440	      0.19423056	      0.13480949	      0.02325256	      0.00125289	     -0.03776137	     -0.10206217	     -0.20397222	     -0.23920851	      0.00000079	     -0.32847694	      0.00000060	     -0.00000086	    215.01313934	    129.24823527	      6.74052029	     -5.63398106	      4.95359510	     85.42695115	   -215.01313934	   -129.24823527	     -6.74052029	      3.28944459	     -5.65713559	      2.85073184	      0.04109571	      0.00179847	     -0.02641239	      0.01052468	     -0.00064536	      0.01633101	     -0.04109571	     -0.00179847	      0.02641239	     -0.00010600	      0.00126074	     -0.00007843	   -892.83346706	   -369.73616797	    303.41607851	     -8.31503564	     21.82389389	      2.31826788	    892.83346706	    369.73616797	   -303.41607851	    128.84702592	    -15.77424178	    359.73166204	   -250.91979123	   -115.10321757	    -66.65481190	      3.68136013	     -8.54179964	      0.89824028	    250.91979123	    115.10321757	     66.65481190	    -29.68418203	      6.12937526	    101.15441366	    250.96053679	      0.04888462	    283.99358492	   1012.87597982
      0.20993960	      0.01358015	      0.02613936	     81.29002041	      1.04485628	      0.00000000	    962.48599201	    606.56492245	     26.18107541	     12.73779359	      0.00000000	      0.00000000	      0.00000000	      0.00000000	      0.00000000	      0.00000000	      0.00000001	      0.00000000	      0.03102891	      0.02440494	      0.03715758	      0.03393532	      0.06143943	      0.05987782	      0.05652363	      0.05023187	      0.04479484	      0.03979007	      0.01525851	      0.01651186	      0.06550154	      0.04489616	      0.00075490	     -0.02608908	      0.19495822	      0.13542389	      0.02352987	      0.00141012	     -0.03753522	     -0.10263689	     -0.20461735	     -0.23981619	      0.00000079	     -0.32847694	      0.00000060	     -0.00000086	    215.86498473	    126.20560381	      6.54908446	     -5.46846062	      4.97091154	     85.79132597	   -215.86498473	   -126.20560381	     -6.54908446	      3.19393586	     -5.67612513	      2.76947386	      0.03962957	      0.00153244	     -0.02533176	      0.01009120	     -0.00062106	      0.01574875	     -0.03962957	     -0.00153244	      0.02533176	     -0.00009653	      0.00121124	     -0.00007715	   -893.40762364	   -362.38217859	    304.76446494	     -8.17677496	     21.85260023	      2.20355384	    893.40762364	    362.38217859	   -304.76446494	    129.26257222	    -15.77035488	    359.98785757	   -253.87842194	   -113.34647450	    -67.46805973	      3.64111782	     -8.65251757	      0.83519944	    253.87842194	    113.34647450	     67.46805973	    -29.97371571	      6.20215650	    102.36946088	    250.13683570	      0.04705900	    286.10070866	   1011.12778838
